G75*
G70*
%OFA0B0*%
%FSLAX24Y24*%
%IPPOS*%
%LPD*%
%AMOC8*
5,1,8,0,0,1.08239X$1,22.5*
%
%ADD10C,0.1182*%
%ADD11R,0.0595X0.0595*%
%ADD12C,0.0595*%
%ADD13C,0.0680*%
%ADD14C,0.0789*%
%ADD15C,0.0640*%
%ADD16C,0.0600*%
%ADD17OC8,0.0710*%
%ADD18C,0.0710*%
%ADD19C,0.0674*%
%ADD20C,0.0477*%
%ADD21OC8,0.0397*%
%ADD22C,0.0397*%
%ADD23C,0.0437*%
%ADD24R,0.0437X0.0437*%
%ADD25R,0.0397X0.0397*%
%ADD26R,0.0476X0.0476*%
D10*
X006785Y008530D03*
X006785Y019554D03*
X017809Y019554D03*
X017809Y008530D03*
D11*
G36*
X014728Y008552D02*
X014308Y008132D01*
X013888Y008552D01*
X014308Y008972D01*
X014728Y008552D01*
G37*
G36*
X014631Y016376D02*
X014211Y015956D01*
X013791Y016376D01*
X014211Y016796D01*
X014631Y016376D01*
G37*
G36*
X009162Y019046D02*
X008742Y018626D01*
X008322Y019046D01*
X008742Y019466D01*
X009162Y019046D01*
G37*
D12*
X008035Y018339D03*
X007328Y017631D03*
X006621Y016924D03*
X005914Y016217D03*
X005206Y015510D03*
X004499Y014803D03*
X007328Y011975D03*
X009449Y014096D03*
X010156Y014803D03*
X011382Y013548D03*
X010675Y012841D03*
X009968Y012134D03*
X012089Y014255D03*
X012796Y014962D03*
X013503Y015669D03*
X012278Y016924D03*
X011570Y016217D03*
X015625Y012134D03*
X014918Y011427D03*
X015722Y009966D03*
X016429Y010673D03*
X017136Y011380D03*
X017843Y012087D03*
X018550Y012794D03*
X019257Y013501D03*
X017746Y014255D03*
X017039Y013548D03*
X015015Y009259D03*
X012796Y009305D03*
X008277Y021424D03*
X006277Y021424D03*
D13*
X003566Y004223D02*
X003107Y003837D01*
X003749Y003071D02*
X004209Y003457D01*
X002924Y004989D02*
X002464Y004603D01*
X001821Y005369D02*
X002281Y005755D01*
X001638Y006521D02*
X001178Y006135D01*
X001383Y012648D02*
X001983Y012648D01*
X001983Y013648D02*
X001383Y013648D01*
X001383Y014648D02*
X001983Y014648D01*
D14*
X017547Y006376D02*
X018255Y006376D01*
X018255Y005376D02*
X017547Y005376D01*
X019128Y020530D02*
X019837Y020530D01*
X019837Y021530D02*
X019128Y021530D01*
D15*
X019589Y010680D02*
X019589Y010120D01*
X018589Y010120D02*
X018589Y010680D01*
D16*
X014322Y019799D02*
X013954Y020166D01*
X014661Y020873D02*
X015029Y020506D01*
D17*
X011510Y020746D03*
X019384Y019171D03*
D18*
X019384Y017771D03*
X011510Y019346D03*
D19*
X016441Y016603D02*
X016861Y016184D01*
X017568Y016891D02*
X017148Y017310D01*
D20*
X011123Y008084D02*
X011403Y007803D01*
X011055Y007455D02*
X010775Y007736D01*
D21*
X011805Y004494D03*
X012396Y004494D03*
X006490Y013156D03*
X006490Y013156D03*
X006884Y013550D03*
X007277Y013943D03*
D22*
X007277Y013943D03*
X009246Y012959D03*
X006589Y011680D03*
X003439Y008136D03*
X003242Y007054D03*
X003242Y007054D03*
X002651Y007152D03*
X002651Y007152D03*
X001372Y008825D03*
X002159Y009613D03*
X010427Y006857D03*
X012396Y008038D03*
X011411Y009711D03*
X013970Y007250D03*
X016825Y006266D03*
X011214Y004494D03*
X011214Y004494D03*
X012002Y012928D03*
X016333Y021817D03*
X003340Y021817D03*
D23*
X003734Y019455D03*
X004915Y017880D03*
X008459Y016306D03*
X006247Y010892D03*
X009246Y007250D03*
X011805Y004494D03*
X012396Y004494D03*
X012494Y005577D03*
X011214Y003707D03*
X011214Y003707D03*
X010526Y003510D03*
X010526Y003510D03*
X010033Y002920D03*
X010033Y002920D03*
X014758Y006069D03*
X014758Y006069D03*
D24*
X003340Y020243D03*
X008065Y020636D03*
D25*
X006884Y013550D03*
D26*
X008065Y012369D03*
X006884Y010794D03*
M02*
