G75*
G70*
%OFA0B0*%
%FSLAX24Y24*%
%IPPOS*%
%LPD*%
%AMOC8*
5,1,8,0,0,1.08239X$1,22.5*
%
%ADD10R,0.0780X0.0220*%
%ADD11R,0.0260X0.0800*%
%ADD12R,0.0515X0.0515*%
%ADD13C,0.0515*%
%ADD14R,0.0512X0.0591*%
%ADD15C,0.0600*%
%ADD16C,0.0709*%
%ADD17C,0.0560*%
%ADD18R,0.0591X0.0512*%
%ADD19C,0.0520*%
%ADD20R,0.0197X0.0354*%
%ADD21R,0.0866X0.0236*%
%ADD22R,0.0460X0.0630*%
%ADD23OC8,0.0630*%
%ADD24C,0.0630*%
%ADD25C,0.0594*%
%ADD26C,0.0397*%
%ADD27R,0.0591X0.0472*%
%ADD28C,0.0118*%
%ADD29OC8,0.0317*%
%ADD30C,0.0317*%
%ADD31C,0.0357*%
%ADD32C,0.0500*%
%ADD33C,0.0160*%
%ADD34C,0.0157*%
%ADD35C,0.0320*%
%ADD36R,0.0357X0.0357*%
%ADD37C,0.0240*%
%ADD38C,0.0177*%
%ADD39R,0.0317X0.0317*%
%ADD40R,0.0396X0.0396*%
%ADD41C,0.0120*%
D10*
G36*
X006446Y005256D02*
X005896Y005806D01*
X006052Y005962D01*
X006602Y005412D01*
X006446Y005256D01*
G37*
G36*
X006799Y005609D02*
X006249Y006159D01*
X006405Y006315D01*
X006955Y005765D01*
X006799Y005609D01*
G37*
G36*
X007153Y005963D02*
X006603Y006513D01*
X006759Y006669D01*
X007309Y006119D01*
X007153Y005963D01*
G37*
G36*
X007507Y006316D02*
X006957Y006866D01*
X007113Y007022D01*
X007663Y006472D01*
X007507Y006316D01*
G37*
G36*
X007860Y006670D02*
X007310Y007220D01*
X007466Y007376D01*
X008016Y006826D01*
X007860Y006670D01*
G37*
G36*
X008214Y007023D02*
X007664Y007573D01*
X007820Y007729D01*
X008370Y007179D01*
X008214Y007023D01*
G37*
G36*
X008567Y007377D02*
X008017Y007927D01*
X008173Y008083D01*
X008723Y007533D01*
X008567Y007377D01*
G37*
G36*
X008921Y007730D02*
X008371Y008280D01*
X008527Y008436D01*
X009077Y007886D01*
X008921Y007730D01*
G37*
G36*
X009274Y008084D02*
X008724Y008634D01*
X008880Y008790D01*
X009430Y008240D01*
X009274Y008084D01*
G37*
G36*
X009628Y008437D02*
X009078Y008987D01*
X009234Y009143D01*
X009784Y008593D01*
X009628Y008437D01*
G37*
G36*
X009981Y008791D02*
X009431Y009341D01*
X009587Y009497D01*
X010137Y008947D01*
X009981Y008791D01*
G37*
G36*
X010335Y009145D02*
X009785Y009695D01*
X009941Y009851D01*
X010491Y009301D01*
X010335Y009145D01*
G37*
G36*
X010689Y009498D02*
X010139Y010048D01*
X010295Y010204D01*
X010845Y009654D01*
X010689Y009498D01*
G37*
G36*
X011042Y009852D02*
X010492Y010402D01*
X010648Y010558D01*
X011198Y010008D01*
X011042Y009852D01*
G37*
G36*
X013556Y007338D02*
X013006Y007888D01*
X013162Y008044D01*
X013712Y007494D01*
X013556Y007338D01*
G37*
G36*
X013202Y006984D02*
X012652Y007534D01*
X012808Y007690D01*
X013358Y007140D01*
X013202Y006984D01*
G37*
G36*
X012849Y006631D02*
X012299Y007181D01*
X012455Y007337D01*
X013005Y006787D01*
X012849Y006631D01*
G37*
G36*
X012495Y006277D02*
X011945Y006827D01*
X012101Y006983D01*
X012651Y006433D01*
X012495Y006277D01*
G37*
G36*
X012142Y005924D02*
X011592Y006474D01*
X011748Y006630D01*
X012298Y006080D01*
X012142Y005924D01*
G37*
G36*
X011788Y005570D02*
X011238Y006120D01*
X011394Y006276D01*
X011944Y005726D01*
X011788Y005570D01*
G37*
G36*
X011435Y005217D02*
X010885Y005767D01*
X011041Y005923D01*
X011591Y005373D01*
X011435Y005217D01*
G37*
G36*
X011081Y004863D02*
X010531Y005413D01*
X010687Y005569D01*
X011237Y005019D01*
X011081Y004863D01*
G37*
G36*
X010728Y004509D02*
X010178Y005059D01*
X010334Y005215D01*
X010884Y004665D01*
X010728Y004509D01*
G37*
G36*
X010374Y004156D02*
X009824Y004706D01*
X009980Y004862D01*
X010530Y004312D01*
X010374Y004156D01*
G37*
G36*
X010020Y003802D02*
X009470Y004352D01*
X009626Y004508D01*
X010176Y003958D01*
X010020Y003802D01*
G37*
G36*
X009667Y003449D02*
X009117Y003999D01*
X009273Y004155D01*
X009823Y003605D01*
X009667Y003449D01*
G37*
G36*
X009313Y003095D02*
X008763Y003645D01*
X008919Y003801D01*
X009469Y003251D01*
X009313Y003095D01*
G37*
G36*
X008960Y002742D02*
X008410Y003292D01*
X008566Y003448D01*
X009116Y002898D01*
X008960Y002742D01*
G37*
G36*
X014683Y004359D02*
X014133Y003809D01*
X013977Y003965D01*
X014527Y004515D01*
X014683Y004359D01*
G37*
G36*
X015037Y004005D02*
X014487Y003455D01*
X014331Y003611D01*
X014881Y004161D01*
X015037Y004005D01*
G37*
G36*
X015390Y003651D02*
X014840Y003101D01*
X014684Y003257D01*
X015234Y003807D01*
X015390Y003651D01*
G37*
G36*
X015744Y003298D02*
X015194Y002748D01*
X015038Y002904D01*
X015588Y003454D01*
X015744Y003298D01*
G37*
G36*
X017059Y004613D02*
X016509Y004063D01*
X016353Y004219D01*
X016903Y004769D01*
X017059Y004613D01*
G37*
G36*
X016705Y004967D02*
X016155Y004417D01*
X015999Y004573D01*
X016549Y005123D01*
X016705Y004967D01*
G37*
G36*
X016352Y005320D02*
X015802Y004770D01*
X015646Y004926D01*
X016196Y005476D01*
X016352Y005320D01*
G37*
G36*
X015998Y005674D02*
X015448Y005124D01*
X015292Y005280D01*
X015842Y005830D01*
X015998Y005674D01*
G37*
D11*
G36*
X005922Y010751D02*
X006106Y010567D01*
X005542Y010003D01*
X005358Y010187D01*
X005922Y010751D01*
G37*
G36*
X005568Y011105D02*
X005752Y010921D01*
X005188Y010357D01*
X005004Y010541D01*
X005568Y011105D01*
G37*
G36*
X005215Y011458D02*
X005399Y011274D01*
X004835Y010710D01*
X004651Y010894D01*
X005215Y011458D01*
G37*
G36*
X004861Y011812D02*
X005045Y011628D01*
X004481Y011064D01*
X004297Y011248D01*
X004861Y011812D01*
G37*
G36*
X004508Y012165D02*
X004692Y011981D01*
X004128Y011417D01*
X003944Y011601D01*
X004508Y012165D01*
G37*
G36*
X004154Y012519D02*
X004338Y012335D01*
X003774Y011771D01*
X003590Y011955D01*
X004154Y012519D01*
G37*
G36*
X003801Y012873D02*
X003985Y012689D01*
X003421Y012125D01*
X003237Y012309D01*
X003801Y012873D01*
G37*
G36*
X003447Y013226D02*
X003631Y013042D01*
X003067Y012478D01*
X002883Y012662D01*
X003447Y013226D01*
G37*
G36*
X001736Y011515D02*
X001920Y011331D01*
X001356Y010767D01*
X001172Y010951D01*
X001736Y011515D01*
G37*
G36*
X002089Y011161D02*
X002273Y010977D01*
X001709Y010413D01*
X001525Y010597D01*
X002089Y011161D01*
G37*
G36*
X002443Y010808D02*
X002627Y010624D01*
X002063Y010060D01*
X001879Y010244D01*
X002443Y010808D01*
G37*
G36*
X002797Y010454D02*
X002981Y010270D01*
X002417Y009706D01*
X002233Y009890D01*
X002797Y010454D01*
G37*
G36*
X003150Y010101D02*
X003334Y009917D01*
X002770Y009353D01*
X002586Y009537D01*
X003150Y010101D01*
G37*
G36*
X003504Y009747D02*
X003688Y009563D01*
X003124Y008999D01*
X002940Y009183D01*
X003504Y009747D01*
G37*
G36*
X003857Y009394D02*
X004041Y009210D01*
X003477Y008646D01*
X003293Y008830D01*
X003857Y009394D01*
G37*
G36*
X004211Y009040D02*
X004395Y008856D01*
X003831Y008292D01*
X003647Y008476D01*
X004211Y009040D01*
G37*
D12*
G36*
X009105Y019046D02*
X008742Y018683D01*
X008379Y019046D01*
X008742Y019409D01*
X009105Y019046D01*
G37*
G36*
X014574Y016376D02*
X014211Y016013D01*
X013848Y016376D01*
X014211Y016739D01*
X014574Y016376D01*
G37*
G36*
X014671Y008552D02*
X014308Y008189D01*
X013945Y008552D01*
X014308Y008915D01*
X014671Y008552D01*
G37*
D13*
X015015Y009259D03*
X015722Y009966D03*
X016429Y010673D03*
X017136Y011380D03*
X017843Y012087D03*
X018550Y012794D03*
X019257Y013501D03*
X017746Y014255D03*
X017039Y013548D03*
X015625Y012134D03*
X014918Y011427D03*
X012796Y009305D03*
X009968Y012134D03*
X010675Y012841D03*
X011382Y013548D03*
X012089Y014255D03*
X012796Y014962D03*
X013503Y015669D03*
X012278Y016924D03*
X011570Y016217D03*
X010156Y014803D03*
X009449Y014096D03*
X007328Y011975D03*
X004499Y014803D03*
X005206Y015510D03*
X005914Y016217D03*
X006621Y016924D03*
X007328Y017631D03*
X008035Y018339D03*
X008277Y021424D03*
X006277Y021424D03*
D14*
X008297Y020042D03*
X009045Y020042D03*
X004785Y018848D03*
X004037Y018848D03*
X002088Y018920D03*
X001340Y018920D03*
G36*
X007208Y010729D02*
X007570Y010367D01*
X007154Y009951D01*
X006792Y010313D01*
X007208Y010729D01*
G37*
G36*
X007737Y010200D02*
X008099Y009838D01*
X007683Y009422D01*
X007321Y009784D01*
X007737Y010200D01*
G37*
G36*
X011649Y011169D02*
X012011Y010807D01*
X011595Y010391D01*
X011233Y010753D01*
X011649Y011169D01*
G37*
G36*
X012178Y010640D02*
X012540Y010278D01*
X012124Y009862D01*
X011762Y010224D01*
X012178Y010640D01*
G37*
G36*
X014071Y007800D02*
X014433Y008162D01*
X014849Y007746D01*
X014487Y007384D01*
X014071Y007800D01*
G37*
G36*
X014600Y008329D02*
X014962Y008691D01*
X015378Y008275D01*
X015016Y007913D01*
X014600Y008329D01*
G37*
G36*
X015577Y007315D02*
X015939Y007677D01*
X016355Y007261D01*
X015993Y006899D01*
X015577Y007315D01*
G37*
G36*
X015048Y006786D02*
X015410Y007148D01*
X015826Y006732D01*
X015464Y006370D01*
X015048Y006786D01*
G37*
G36*
X014739Y005404D02*
X014377Y005042D01*
X013961Y005458D01*
X014323Y005820D01*
X014739Y005404D01*
G37*
G36*
X014210Y004875D02*
X013848Y004513D01*
X013432Y004929D01*
X013794Y005291D01*
X014210Y004875D01*
G37*
G36*
X013423Y005730D02*
X013061Y005368D01*
X012645Y005784D01*
X013007Y006146D01*
X013423Y005730D01*
G37*
G36*
X013952Y006259D02*
X013590Y005897D01*
X013174Y006313D01*
X013536Y006675D01*
X013952Y006259D01*
G37*
G36*
X017514Y003176D02*
X017152Y002814D01*
X016736Y003230D01*
X017098Y003592D01*
X017514Y003176D01*
G37*
G36*
X018043Y003705D02*
X017681Y003343D01*
X017265Y003759D01*
X017627Y004121D01*
X018043Y003705D01*
G37*
G36*
X006334Y003841D02*
X005972Y004203D01*
X006388Y004619D01*
X006750Y004257D01*
X006334Y003841D01*
G37*
G36*
X005805Y004370D02*
X005443Y004732D01*
X005859Y005148D01*
X006221Y004786D01*
X005805Y004370D01*
G37*
G36*
X001888Y003563D02*
X001526Y003925D01*
X001942Y004341D01*
X002304Y003979D01*
X001888Y003563D01*
G37*
G36*
X001359Y004092D02*
X000997Y004454D01*
X001413Y004870D01*
X001775Y004508D01*
X001359Y004092D01*
G37*
G36*
X002074Y007949D02*
X002436Y007587D01*
X002020Y007171D01*
X001658Y007533D01*
X002074Y007949D01*
G37*
G36*
X001545Y008478D02*
X001907Y008116D01*
X001491Y007700D01*
X001129Y008062D01*
X001545Y008478D01*
G37*
G36*
X015161Y019048D02*
X014799Y018686D01*
X014383Y019102D01*
X014745Y019464D01*
X015161Y019048D01*
G37*
G36*
X015690Y019577D02*
X015328Y019215D01*
X014912Y019631D01*
X015274Y019993D01*
X015690Y019577D01*
G37*
D15*
X003566Y004223D02*
X003107Y003837D01*
X003749Y003071D02*
X004209Y003457D01*
X002924Y004989D02*
X002464Y004603D01*
X001821Y005369D02*
X002281Y005755D01*
X001638Y006521D02*
X001178Y006135D01*
X001383Y012648D02*
X001983Y012648D01*
X001983Y013648D02*
X001383Y013648D01*
X001383Y014648D02*
X001983Y014648D01*
D16*
X017547Y006376D02*
X018255Y006376D01*
X018255Y005376D02*
X017547Y005376D01*
X019128Y020530D02*
X019837Y020530D01*
X019837Y021530D02*
X019128Y021530D01*
D17*
X019589Y010680D02*
X019589Y010120D01*
X018589Y010120D02*
X018589Y010680D01*
D18*
X019482Y008806D03*
X019482Y008057D03*
X019482Y014750D03*
X019482Y015498D03*
X001316Y020637D03*
X001316Y021385D03*
D19*
X013954Y020166D02*
X014322Y019799D01*
X015029Y020506D02*
X014661Y020873D01*
D20*
G36*
X006303Y011768D02*
X006164Y011907D01*
X006413Y012156D01*
X006552Y012017D01*
X006303Y011768D01*
G37*
G36*
X006080Y011991D02*
X005941Y012130D01*
X006190Y012379D01*
X006329Y012240D01*
X006080Y011991D01*
G37*
G36*
X005857Y012213D02*
X005718Y012352D01*
X005967Y012601D01*
X006106Y012462D01*
X005857Y012213D01*
G37*
G36*
X005635Y012436D02*
X005496Y012575D01*
X005745Y012824D01*
X005884Y012685D01*
X005635Y012436D01*
G37*
G36*
X005189Y011991D02*
X005050Y012130D01*
X005299Y012379D01*
X005438Y012240D01*
X005189Y011991D01*
G37*
G36*
X005412Y011768D02*
X005273Y011907D01*
X005522Y012156D01*
X005661Y012017D01*
X005412Y011768D01*
G37*
G36*
X005635Y011545D02*
X005496Y011684D01*
X005745Y011933D01*
X005884Y011794D01*
X005635Y011545D01*
G37*
G36*
X005857Y011322D02*
X005718Y011461D01*
X005967Y011710D01*
X006106Y011571D01*
X005857Y011322D01*
G37*
G36*
X004873Y012273D02*
X004734Y012412D01*
X004983Y012661D01*
X005122Y012522D01*
X004873Y012273D01*
G37*
G36*
X004651Y012496D02*
X004512Y012635D01*
X004761Y012884D01*
X004900Y012745D01*
X004651Y012496D01*
G37*
G36*
X004428Y012718D02*
X004289Y012857D01*
X004538Y013106D01*
X004677Y012967D01*
X004428Y012718D01*
G37*
G36*
X004205Y012941D02*
X004066Y013080D01*
X004315Y013329D01*
X004454Y013190D01*
X004205Y012941D01*
G37*
G36*
X004651Y013386D02*
X004512Y013525D01*
X004761Y013774D01*
X004900Y013635D01*
X004651Y013386D01*
G37*
G36*
X004873Y013164D02*
X004734Y013303D01*
X004983Y013552D01*
X005122Y013413D01*
X004873Y013164D01*
G37*
G36*
X005096Y012941D02*
X004957Y013080D01*
X005206Y013329D01*
X005345Y013190D01*
X005096Y012941D01*
G37*
G36*
X005319Y012718D02*
X005180Y012857D01*
X005429Y013106D01*
X005568Y012967D01*
X005319Y012718D01*
G37*
D21*
X004426Y019855D03*
X004426Y020355D03*
X004426Y020855D03*
X004426Y021355D03*
X002379Y021355D03*
X002379Y020855D03*
X002379Y020355D03*
X002379Y019855D03*
D22*
G36*
X004753Y016888D02*
X005078Y017213D01*
X005523Y016768D01*
X005198Y016443D01*
X004753Y016888D01*
G37*
G36*
X005177Y017312D02*
X005502Y017637D01*
X005947Y017192D01*
X005622Y016867D01*
X005177Y017312D01*
G37*
G36*
X005602Y017736D02*
X005927Y018061D01*
X006372Y017616D01*
X006047Y017291D01*
X005602Y017736D01*
G37*
G36*
X014851Y017631D02*
X015176Y017956D01*
X015621Y017511D01*
X015296Y017186D01*
X014851Y017631D01*
G37*
G36*
X015275Y018056D02*
X015600Y018381D01*
X016045Y017936D01*
X015720Y017611D01*
X015275Y018056D01*
G37*
G36*
X015700Y018480D02*
X016025Y018805D01*
X016470Y018360D01*
X016145Y018035D01*
X015700Y018480D01*
G37*
D23*
X019384Y019171D03*
X011510Y020746D03*
D24*
X011510Y019346D03*
X019384Y017771D03*
D25*
X017568Y016891D02*
X017148Y017310D01*
X016441Y016603D02*
X016861Y016184D01*
D26*
X011123Y008084D02*
X011403Y007803D01*
X011055Y007455D02*
X010775Y007736D01*
D27*
G36*
X008623Y020840D02*
X009039Y021256D01*
X009373Y020922D01*
X008957Y020506D01*
X008623Y020840D01*
G37*
G36*
X009431Y021647D02*
X009847Y022063D01*
X010181Y021729D01*
X009765Y021313D01*
X009431Y021647D01*
G37*
D28*
X008998Y020881D02*
X009144Y020735D01*
X009148Y020735D01*
X008035Y018339D02*
X010264Y018339D01*
X012592Y016010D01*
X013162Y016010D01*
X013503Y015669D01*
X012796Y014962D02*
X012240Y015518D01*
X011214Y015518D01*
X009101Y017631D01*
X007328Y017631D01*
X006621Y016924D02*
X009316Y016924D01*
X011608Y014632D01*
X011712Y014632D01*
X012089Y014255D01*
X012002Y013550D02*
X012789Y013550D01*
X013577Y012762D01*
X014996Y012762D01*
X015625Y012134D01*
X014918Y011427D02*
X014369Y011975D01*
X013577Y011975D01*
X013183Y012369D01*
X011903Y012369D01*
X010176Y014096D01*
X009449Y014096D01*
X009011Y014534D01*
X006096Y014534D01*
X004928Y013366D01*
X004928Y013358D01*
X004706Y013580D02*
X004706Y013635D01*
X005998Y014928D01*
X010032Y014928D01*
X010156Y014803D01*
X010749Y014803D01*
X012002Y013550D01*
X011382Y013548D02*
X012002Y012928D01*
X012396Y011581D02*
X010427Y011581D01*
X009640Y010794D01*
X008509Y010794D01*
X007328Y011975D01*
X006835Y012467D01*
X006392Y012467D01*
X006135Y012210D01*
X006135Y012185D01*
X005938Y012407D02*
X006293Y012762D01*
X007573Y012762D01*
X007770Y012959D01*
X009246Y012959D01*
X010722Y011187D02*
X011214Y011187D01*
X011622Y010780D01*
X012151Y010251D02*
X012151Y009070D01*
X012396Y008825D01*
X013183Y008825D01*
X014758Y010400D01*
X015288Y010400D01*
X015722Y009966D01*
X016429Y009709D02*
X016429Y010673D01*
X016333Y010769D01*
X016333Y011581D01*
X016839Y012087D01*
X017843Y012087D01*
X018807Y012087D01*
X019285Y012565D01*
X019285Y013474D01*
X019257Y013501D01*
X018695Y013943D02*
X018695Y013963D01*
X019482Y014750D01*
X019482Y015498D02*
X019482Y016306D01*
X019482Y017672D01*
X019384Y017771D01*
X019384Y019171D02*
X019482Y019269D01*
X019482Y020530D01*
X017358Y017146D02*
X016085Y018420D01*
X015660Y017996D02*
X014772Y018884D01*
X014772Y019075D01*
X015301Y019604D02*
X014845Y020060D01*
X014845Y020690D01*
X016333Y021817D02*
X016333Y019455D01*
X019482Y016306D01*
X017746Y014255D02*
X016483Y015518D01*
X014364Y015518D01*
X012958Y016924D01*
X012278Y016924D01*
X015236Y017571D02*
X016414Y016393D01*
X016651Y016393D01*
X017358Y017101D02*
X017358Y017146D01*
X018695Y013943D02*
X018550Y013799D01*
X018550Y012794D01*
X017136Y011380D02*
X017514Y011003D01*
X017514Y010006D01*
X015966Y008458D01*
X015966Y007288D01*
X015437Y006759D02*
X015437Y006748D01*
X014758Y006069D01*
X014350Y005431D02*
X015545Y004236D01*
X015545Y004002D01*
X015840Y004002D01*
X016628Y003215D01*
X017113Y003215D01*
X017125Y003203D01*
X017654Y003732D02*
X016970Y004416D01*
X016706Y004416D01*
X016411Y004770D02*
X017022Y005380D01*
X017896Y005380D01*
X017901Y005376D01*
X018395Y005376D01*
X019089Y006069D01*
X019089Y007664D01*
X019482Y008057D01*
X018892Y007841D02*
X018892Y009416D01*
X018596Y009711D01*
X018596Y010392D01*
X018589Y010400D01*
X019589Y010400D02*
X019589Y008912D01*
X019482Y008806D01*
X018892Y007841D02*
X017901Y006850D01*
X017901Y006376D01*
X017792Y006266D01*
X017809Y006266D01*
X017907Y006365D01*
X017415Y006365D01*
X017317Y006266D01*
X016825Y006266D01*
X016825Y005872D01*
X016075Y005123D01*
X015999Y005123D01*
X016352Y004770D02*
X016411Y004770D01*
X015545Y004002D02*
X015037Y003494D01*
X015037Y003454D01*
X015333Y003101D02*
X015053Y002821D01*
X014659Y002821D01*
X013774Y003707D01*
X011214Y003707D01*
X011214Y004494D02*
X010919Y004494D01*
X010551Y004862D01*
X010531Y004862D01*
X010884Y005216D02*
X011212Y004888D01*
X011510Y004888D01*
X011805Y004593D01*
X011805Y004494D01*
X011903Y004888D02*
X011919Y004888D01*
X012002Y004888D01*
X012396Y004494D01*
X011919Y004888D02*
X011238Y005570D01*
X011214Y005593D01*
X011214Y005676D01*
X011411Y005479D01*
X011411Y005380D01*
X011903Y004888D01*
X011903Y005577D02*
X012494Y005577D01*
X012854Y005577D01*
X013034Y005757D01*
X013034Y005690D01*
X013821Y004902D01*
X013934Y004790D01*
X014561Y004790D01*
X015053Y004298D01*
X015053Y004199D01*
X014684Y003830D01*
X014684Y003808D01*
X014330Y004162D02*
X010524Y004162D01*
X010177Y004509D01*
X009880Y004155D02*
X010526Y003510D01*
X010033Y003215D02*
X010033Y002920D01*
X010033Y003215D02*
X009470Y003779D01*
X009470Y003802D01*
X009116Y003448D02*
X009251Y003313D01*
X009344Y003313D01*
X009443Y003215D01*
X009443Y002723D01*
X009344Y002624D01*
X008655Y002624D01*
X008557Y002723D01*
X007081Y002723D01*
X006540Y003264D01*
X003979Y003264D01*
X004592Y004030D02*
X003336Y004030D01*
X002694Y004796D02*
X001915Y004017D01*
X001915Y003952D01*
X001386Y004481D02*
X001386Y004897D01*
X002051Y005562D01*
X002460Y005971D01*
X003439Y005971D01*
X004651Y004759D01*
X005832Y004759D01*
X006619Y004759D01*
X006884Y004494D01*
X008459Y004494D01*
X010427Y006463D01*
X010427Y006857D01*
X011018Y006660D02*
X011561Y006660D01*
X011945Y006277D01*
X011991Y006277D01*
X012297Y005971D01*
X012494Y005971D01*
X013085Y006561D01*
X013287Y006561D01*
X013563Y006286D01*
X013740Y006463D01*
X013970Y006463D01*
X015545Y008038D01*
X015545Y008825D01*
X016429Y009709D01*
X014989Y008302D02*
X014739Y008552D01*
X014308Y008552D01*
X014460Y007773D02*
X014460Y007740D01*
X013970Y007250D01*
X013359Y007691D02*
X013012Y008038D01*
X012396Y008038D01*
X012002Y007644D02*
X011562Y007644D01*
X011263Y007943D01*
X010915Y007595D02*
X010915Y007550D01*
X011214Y007250D01*
X011678Y007250D01*
X012298Y006630D01*
X012652Y006984D02*
X012652Y006994D01*
X012002Y007644D01*
X011018Y006660D02*
X008588Y004230D01*
X006361Y004230D01*
X006226Y004230D01*
X005801Y003806D01*
X005309Y003806D01*
X004718Y004396D01*
X004325Y004396D01*
X003537Y005183D01*
X003045Y005183D01*
X002848Y004987D01*
X003636Y006561D02*
X001641Y006561D01*
X001408Y006328D01*
X001878Y007560D02*
X002047Y007560D01*
X002244Y007560D01*
X002651Y007152D01*
X003242Y007152D02*
X002061Y008333D01*
X001763Y008333D01*
X001518Y008089D01*
X001518Y008679D01*
X001372Y008825D01*
X000978Y009219D01*
X000978Y010573D01*
X001546Y011141D01*
X001546Y011407D01*
X000978Y011975D01*
X000978Y013550D01*
X001585Y013550D01*
X001683Y013648D01*
X001864Y013648D01*
X004522Y016306D01*
X004522Y017683D01*
X004128Y018077D01*
X004128Y018527D01*
X003734Y018920D01*
X005044Y016828D02*
X005044Y016040D01*
X003340Y014337D01*
X003340Y013943D01*
X002045Y012648D01*
X001683Y012648D01*
X003257Y012852D02*
X003257Y012876D01*
X003734Y013353D01*
X004042Y013353D01*
X004260Y013135D01*
X004483Y012912D02*
X004333Y012762D01*
X003931Y012762D01*
X003667Y012499D01*
X003611Y012499D01*
X003964Y012145D02*
X004003Y012145D01*
X004325Y012467D01*
X004522Y012467D01*
X004522Y012506D01*
X004706Y012690D01*
X004928Y012467D02*
X004318Y011856D01*
X004318Y011791D01*
X004671Y011534D02*
X004671Y011438D01*
X004671Y011534D02*
X004915Y011778D01*
X004915Y011876D01*
X005014Y011975D01*
X005035Y011975D01*
X005244Y012185D01*
X005467Y011962D02*
X005309Y011804D01*
X005309Y011483D01*
X005025Y011199D01*
X005025Y011084D01*
X005378Y010765D02*
X005703Y011089D01*
X005703Y011187D01*
X005604Y011286D01*
X005604Y011654D01*
X005690Y011739D01*
X005912Y012407D02*
X005938Y012407D01*
X005690Y012630D02*
X005690Y012651D01*
X006096Y013057D01*
X006392Y013057D01*
X006490Y013156D01*
X006884Y013550D02*
X005998Y013550D01*
X005374Y012925D01*
X005374Y012912D01*
X005190Y013135D02*
X005998Y013943D01*
X007277Y013943D01*
X008370Y016217D02*
X005914Y016217D01*
X008370Y016217D02*
X008459Y016306D01*
X005190Y013135D02*
X005151Y013135D01*
X006589Y011680D02*
X009431Y008837D01*
X009431Y008790D01*
X009077Y008437D02*
X009077Y008403D01*
X009443Y008038D01*
X009443Y007447D01*
X009246Y007250D01*
X007663Y007062D02*
X007277Y007447D01*
X006195Y007447D01*
X005112Y008530D01*
X005112Y009120D01*
X004423Y009809D01*
X003931Y009809D01*
X002947Y010794D01*
X002613Y010794D01*
X002253Y010434D01*
X001899Y010787D02*
X001372Y010260D01*
X001372Y009613D01*
X004522Y006463D01*
X006096Y006463D01*
X006597Y005962D01*
X006602Y005962D01*
X006249Y005609D02*
X004589Y005609D01*
X003636Y006561D01*
X003242Y007054D02*
X003242Y007152D01*
X004021Y007751D02*
X004915Y006857D01*
X006415Y006857D01*
X006956Y006316D01*
X007268Y006669D02*
X006785Y007152D01*
X005801Y007152D01*
X004718Y008235D01*
X004718Y009120D01*
X004423Y009416D01*
X004128Y009416D01*
X003833Y009120D01*
X003768Y009120D01*
X003667Y009020D01*
X003314Y009373D02*
X003298Y009373D01*
X002947Y009022D01*
X002947Y008628D01*
X003439Y008136D01*
X004021Y007751D02*
X004021Y008666D01*
X003314Y009373D02*
X002960Y009727D01*
X002960Y009727D01*
X002607Y010060D02*
X002607Y010080D01*
X002607Y010060D02*
X002159Y009613D01*
X005378Y010731D02*
X005378Y010765D01*
X005732Y010377D02*
X006247Y010892D01*
X007663Y007062D02*
X007663Y007023D01*
X007310Y006669D02*
X007268Y006669D01*
X009823Y004155D02*
X009880Y004155D01*
X008763Y003095D02*
X008347Y003510D01*
X005112Y003510D01*
X004592Y004030D01*
X010484Y009851D02*
X010132Y010203D01*
X010132Y010597D01*
X010722Y011187D01*
X010845Y010205D02*
X010918Y010205D01*
X011411Y009711D01*
X010492Y009851D02*
X010484Y009851D01*
X012396Y011581D02*
X013183Y010794D01*
X013183Y010400D01*
X012796Y010013D01*
X012796Y009305D01*
X013563Y006286D02*
X013563Y006218D01*
X014350Y005431D01*
X015333Y003101D02*
X015391Y003101D01*
X017317Y006266D02*
X017792Y006266D01*
X011903Y005577D02*
X011591Y005889D01*
X011591Y005923D01*
X003340Y021355D02*
X003340Y021817D01*
D29*
X007277Y013943D03*
X006884Y013550D03*
X006490Y013156D03*
X006490Y013156D03*
X011805Y004494D03*
X012396Y004494D03*
D30*
X011214Y004494D03*
X011214Y004494D03*
X010427Y006857D03*
X012396Y008038D03*
X011411Y009711D03*
X013970Y007250D03*
X016825Y006266D03*
X012002Y012928D03*
X009246Y012959D03*
X007277Y013943D03*
X006589Y011680D03*
X003439Y008136D03*
X003242Y007054D03*
X003242Y007054D03*
X002651Y007152D03*
X002651Y007152D03*
X001372Y008825D03*
X002159Y009613D03*
X003340Y021817D03*
X016333Y021817D03*
D31*
X008459Y016306D03*
X004915Y017880D03*
X003734Y019455D03*
X006247Y010892D03*
X009246Y007250D03*
X011805Y004494D03*
X012396Y004494D03*
X012494Y005577D03*
X011214Y003707D03*
X011214Y003707D03*
X010526Y003510D03*
X010526Y003510D03*
X010033Y002920D03*
X010033Y002920D03*
X014758Y006069D03*
X014758Y006069D03*
D32*
X004037Y018848D02*
X004037Y018920D01*
X003734Y018920D01*
X003734Y019455D01*
X004134Y019855D01*
X004426Y019855D01*
X003734Y018920D02*
X002088Y018920D01*
D33*
X002379Y019855D02*
X002953Y019855D01*
X003340Y020243D01*
X005562Y017252D02*
X005562Y017233D01*
X005138Y016828D02*
X005044Y016828D01*
X008297Y020404D02*
X008065Y020636D01*
X008297Y020404D02*
X008297Y020042D01*
X008852Y019850D02*
X009045Y020042D01*
X008852Y019850D02*
X008852Y019750D01*
X008557Y019455D01*
X008360Y019455D01*
X005732Y010377D02*
X005680Y010377D01*
D34*
X005562Y017252D02*
X004934Y017880D01*
X004915Y017880D01*
D35*
X005134Y020855D02*
X004426Y020855D01*
X004426Y021355D02*
X003340Y021355D01*
X002379Y021355D01*
X001346Y021355D01*
X001316Y021385D01*
X001316Y020637D02*
X001598Y020355D01*
X002379Y020355D01*
X002379Y020855D02*
X002379Y021355D01*
X002379Y019855D02*
X001772Y019855D01*
X001372Y019455D01*
X001372Y018953D01*
X001340Y018920D01*
X005134Y020855D02*
X005703Y021424D01*
X006277Y021424D01*
D36*
X008065Y020636D03*
X003340Y020243D03*
D37*
X004426Y020355D02*
X005197Y020355D01*
X005309Y020243D01*
X005309Y019372D01*
X004785Y018848D01*
X005987Y017676D02*
X006581Y017676D01*
X008360Y019455D01*
X009045Y020042D02*
X009148Y020145D01*
X009148Y020735D01*
X008459Y021424D01*
X008277Y021424D01*
D38*
X009443Y021916D02*
X006770Y021916D01*
X006277Y021424D01*
X009443Y021916D02*
X009671Y021688D01*
X009806Y021688D01*
D39*
X006884Y013550D03*
D40*
X008065Y012369D03*
X006884Y010794D03*
D41*
X007181Y010496D01*
X007181Y010340D01*
X007710Y009811D02*
X007768Y009811D01*
X008163Y009416D01*
X008163Y007937D01*
X008370Y007730D01*
X008065Y012369D02*
X009246Y012369D01*
X010033Y013156D01*
X010360Y013156D01*
X010675Y012841D01*
M02*
