%
M48
M72
T01C0.0157
T02C0.0197
T03C0.0236
T04C0.0315
T05C0.0320
T06C0.0360
T07C0.0394
T08C0.0400
T09C0.0472
T10C0.1102
%
T01
X2651Y7152
X2651Y7152
X3242Y7054
X3242Y7054
X3439Y8136
X2159Y9613
X1372Y8825
X6490Y13156
X6490Y13156
X6884Y13550
X6884Y13550
X7277Y13943
X7277Y13943
X9246Y12959
X6589Y11680
X10427Y6857
X12396Y8038
X11411Y9711
X13970Y7250
X12396Y4494
X11805Y4494
X11214Y4494
X11214Y4494
X16825Y6266
X12002Y12928
X16333Y21817
X3340Y21817
T02
X3340Y20243
X3734Y19455
X4915Y17880
X8065Y20636
X8459Y16306
X6247Y10892
X9246Y7250
X10915Y7595
X11263Y7943
X12494Y5577
X12396Y4494
X11805Y4494
X11214Y3707
X11214Y3707
X10526Y3510
X10526Y3510
X10033Y2920
X10033Y2920
X14758Y6069
X14758Y6069
T03
X8065Y12369
X6884Y10794
T04
X7328Y11975
X9449Y14096
X10156Y14803
X11382Y13548
X10675Y12841
X9968Y12134
X12089Y14255
X12796Y14962
X13503Y15669
X14211Y16376
X12278Y16924
X11570Y16217
X8742Y19046
X8035Y18339
X7328Y17631
X6621Y16924
X5914Y16217
X5206Y15510
X4499Y14803
X6277Y21424
X8277Y21424
X15625Y12134
X14918Y11427
X15722Y9966
X16429Y10673
X17136Y11380
X17843Y12087
X18550Y12794
X19257Y13501
X17746Y14255
X17039Y13548
X15015Y9259
X14308Y8552
X12796Y9305
T05
X19384Y17771
X19384Y19171
X14845Y20690
X14138Y19982
X11510Y19346
X11510Y20746
T06
X18589Y10400
X19589Y10400
T07
X16651Y16393
X17358Y17101
T08
X3336Y4030
X2694Y4796
X2051Y5562
X1408Y6328
X3979Y3264
X1683Y12648
X1683Y13648
X1683Y14648
T09
X17901Y6376
X17901Y5376
X19482Y20530
X19482Y21530
T10
X17809Y19554
X17809Y8530
X6785Y8530
X6785Y19554
M30
