G75*
G70*
%OFA0B0*%
%FSLAX24Y24*%
%IPPOS*%
%LPD*%
%AMOC8*
5,1,8,0,0,1.08239X$1,22.5*
%
%ADD10C,0.0177*%
%ADD11R,0.2657X0.2854*%
%ADD12C,0.0560*%
%ADD13C,0.0000*%
D10*
X000683Y002428D02*
X000683Y015617D01*
X003045Y015617D01*
X003242Y015617D01*
X003045Y015617D02*
X003111Y015619D01*
X003177Y015624D01*
X003243Y015634D01*
X003308Y015647D01*
X003372Y015663D01*
X003435Y015683D01*
X003497Y015707D01*
X003557Y015734D01*
X003616Y015764D01*
X003673Y015798D01*
X003728Y015835D01*
X003781Y015875D01*
X003832Y015917D01*
X003880Y015963D01*
X003926Y016011D01*
X003968Y016062D01*
X004008Y016115D01*
X004045Y016170D01*
X004079Y016227D01*
X004109Y016286D01*
X004136Y016346D01*
X004160Y016408D01*
X004180Y016471D01*
X004196Y016535D01*
X004209Y016600D01*
X004219Y016666D01*
X004224Y016732D01*
X004226Y016798D01*
X004226Y017191D01*
X003340Y018471D02*
X002947Y018471D01*
X000585Y018471D01*
X000585Y022211D01*
X020270Y022211D01*
X020270Y002428D01*
X000683Y002428D01*
X004227Y017191D02*
X004225Y017260D01*
X004219Y017329D01*
X004210Y017398D01*
X004197Y017466D01*
X004180Y017533D01*
X004160Y017600D01*
X004136Y017665D01*
X004109Y017728D01*
X004078Y017791D01*
X004044Y017851D01*
X004006Y017909D01*
X003966Y017966D01*
X003923Y018020D01*
X003876Y018071D01*
X003827Y018120D01*
X003776Y018167D01*
X003722Y018210D01*
X003665Y018250D01*
X003607Y018288D01*
X003547Y018322D01*
X003484Y018353D01*
X003421Y018380D01*
X003356Y018404D01*
X003289Y018424D01*
X003222Y018441D01*
X003154Y018454D01*
X003085Y018463D01*
X003016Y018469D01*
X002947Y018471D01*
D11*
X001913Y017044D03*
D12*
X002553Y017093D02*
X002553Y017487D01*
X003734Y017487D01*
X003734Y016306D01*
X003340Y016306D01*
X003340Y017487D01*
X001569Y016994D02*
X001571Y017063D01*
X001577Y017131D01*
X001587Y017199D01*
X001601Y017266D01*
X001619Y017333D01*
X001640Y017398D01*
X001666Y017462D01*
X001695Y017524D01*
X001727Y017584D01*
X001763Y017643D01*
X001803Y017699D01*
X001845Y017753D01*
X001891Y017804D01*
X001940Y017853D01*
X001991Y017899D01*
X002045Y017941D01*
X002101Y017981D01*
X002159Y018017D01*
X002220Y018049D01*
X002282Y018078D01*
X002346Y018104D01*
X002411Y018125D01*
X002478Y018143D01*
X002545Y018157D01*
X002613Y018167D01*
X002681Y018173D01*
X002750Y018175D01*
X002819Y018173D01*
X002887Y018167D01*
X002955Y018157D01*
X003022Y018143D01*
X003089Y018125D01*
X003154Y018104D01*
X003218Y018078D01*
X003280Y018049D01*
X003340Y018017D01*
X003399Y017981D01*
X003455Y017941D01*
X003509Y017899D01*
X003560Y017853D01*
X003609Y017804D01*
X003655Y017753D01*
X003697Y017699D01*
X003737Y017643D01*
X003773Y017584D01*
X003805Y017524D01*
X003834Y017462D01*
X003860Y017398D01*
X003881Y017333D01*
X003899Y017266D01*
X003913Y017199D01*
X003923Y017131D01*
X003929Y017063D01*
X003931Y016994D01*
X003929Y016925D01*
X003923Y016857D01*
X003913Y016789D01*
X003899Y016722D01*
X003881Y016655D01*
X003860Y016590D01*
X003834Y016526D01*
X003805Y016464D01*
X003773Y016403D01*
X003737Y016345D01*
X003697Y016289D01*
X003655Y016235D01*
X003609Y016184D01*
X003560Y016135D01*
X003509Y016089D01*
X003455Y016047D01*
X003399Y016007D01*
X003341Y015971D01*
X003280Y015939D01*
X003218Y015910D01*
X003154Y015884D01*
X003089Y015863D01*
X003022Y015845D01*
X002955Y015831D01*
X002887Y015821D01*
X002819Y015815D01*
X002750Y015813D01*
X002681Y015815D01*
X002613Y015821D01*
X002545Y015831D01*
X002478Y015845D01*
X002411Y015863D01*
X002346Y015884D01*
X002282Y015910D01*
X002220Y015939D01*
X002159Y015971D01*
X002101Y016007D01*
X002045Y016047D01*
X001991Y016089D01*
X001940Y016135D01*
X001891Y016184D01*
X001845Y016235D01*
X001803Y016289D01*
X001763Y016345D01*
X001727Y016403D01*
X001695Y016464D01*
X001666Y016526D01*
X001640Y016590D01*
X001619Y016655D01*
X001601Y016722D01*
X001587Y016789D01*
X001577Y016857D01*
X001571Y016925D01*
X001569Y016994D01*
D13*
X006234Y019554D02*
X006236Y019601D01*
X006242Y019647D01*
X006252Y019693D01*
X006265Y019738D01*
X006283Y019781D01*
X006304Y019823D01*
X006328Y019863D01*
X006356Y019900D01*
X006387Y019935D01*
X006421Y019968D01*
X006457Y019997D01*
X006496Y020023D01*
X006537Y020046D01*
X006580Y020065D01*
X006624Y020081D01*
X006669Y020093D01*
X006715Y020101D01*
X006762Y020105D01*
X006808Y020105D01*
X006855Y020101D01*
X006901Y020093D01*
X006946Y020081D01*
X006990Y020065D01*
X007033Y020046D01*
X007074Y020023D01*
X007113Y019997D01*
X007149Y019968D01*
X007183Y019935D01*
X007214Y019900D01*
X007242Y019863D01*
X007266Y019823D01*
X007287Y019781D01*
X007305Y019738D01*
X007318Y019693D01*
X007328Y019647D01*
X007334Y019601D01*
X007336Y019554D01*
X007334Y019507D01*
X007328Y019461D01*
X007318Y019415D01*
X007305Y019370D01*
X007287Y019327D01*
X007266Y019285D01*
X007242Y019245D01*
X007214Y019208D01*
X007183Y019173D01*
X007149Y019140D01*
X007113Y019111D01*
X007074Y019085D01*
X007033Y019062D01*
X006990Y019043D01*
X006946Y019027D01*
X006901Y019015D01*
X006855Y019007D01*
X006808Y019003D01*
X006762Y019003D01*
X006715Y019007D01*
X006669Y019015D01*
X006624Y019027D01*
X006580Y019043D01*
X006537Y019062D01*
X006496Y019085D01*
X006457Y019111D01*
X006421Y019140D01*
X006387Y019173D01*
X006356Y019208D01*
X006328Y019245D01*
X006304Y019285D01*
X006283Y019327D01*
X006265Y019370D01*
X006252Y019415D01*
X006242Y019461D01*
X006236Y019507D01*
X006234Y019554D01*
X006234Y008530D02*
X006236Y008577D01*
X006242Y008623D01*
X006252Y008669D01*
X006265Y008714D01*
X006283Y008757D01*
X006304Y008799D01*
X006328Y008839D01*
X006356Y008876D01*
X006387Y008911D01*
X006421Y008944D01*
X006457Y008973D01*
X006496Y008999D01*
X006537Y009022D01*
X006580Y009041D01*
X006624Y009057D01*
X006669Y009069D01*
X006715Y009077D01*
X006762Y009081D01*
X006808Y009081D01*
X006855Y009077D01*
X006901Y009069D01*
X006946Y009057D01*
X006990Y009041D01*
X007033Y009022D01*
X007074Y008999D01*
X007113Y008973D01*
X007149Y008944D01*
X007183Y008911D01*
X007214Y008876D01*
X007242Y008839D01*
X007266Y008799D01*
X007287Y008757D01*
X007305Y008714D01*
X007318Y008669D01*
X007328Y008623D01*
X007334Y008577D01*
X007336Y008530D01*
X007334Y008483D01*
X007328Y008437D01*
X007318Y008391D01*
X007305Y008346D01*
X007287Y008303D01*
X007266Y008261D01*
X007242Y008221D01*
X007214Y008184D01*
X007183Y008149D01*
X007149Y008116D01*
X007113Y008087D01*
X007074Y008061D01*
X007033Y008038D01*
X006990Y008019D01*
X006946Y008003D01*
X006901Y007991D01*
X006855Y007983D01*
X006808Y007979D01*
X006762Y007979D01*
X006715Y007983D01*
X006669Y007991D01*
X006624Y008003D01*
X006580Y008019D01*
X006537Y008038D01*
X006496Y008061D01*
X006457Y008087D01*
X006421Y008116D01*
X006387Y008149D01*
X006356Y008184D01*
X006328Y008221D01*
X006304Y008261D01*
X006283Y008303D01*
X006265Y008346D01*
X006252Y008391D01*
X006242Y008437D01*
X006236Y008483D01*
X006234Y008530D01*
X017258Y008530D02*
X017260Y008577D01*
X017266Y008623D01*
X017276Y008669D01*
X017289Y008714D01*
X017307Y008757D01*
X017328Y008799D01*
X017352Y008839D01*
X017380Y008876D01*
X017411Y008911D01*
X017445Y008944D01*
X017481Y008973D01*
X017520Y008999D01*
X017561Y009022D01*
X017604Y009041D01*
X017648Y009057D01*
X017693Y009069D01*
X017739Y009077D01*
X017786Y009081D01*
X017832Y009081D01*
X017879Y009077D01*
X017925Y009069D01*
X017970Y009057D01*
X018014Y009041D01*
X018057Y009022D01*
X018098Y008999D01*
X018137Y008973D01*
X018173Y008944D01*
X018207Y008911D01*
X018238Y008876D01*
X018266Y008839D01*
X018290Y008799D01*
X018311Y008757D01*
X018329Y008714D01*
X018342Y008669D01*
X018352Y008623D01*
X018358Y008577D01*
X018360Y008530D01*
X018358Y008483D01*
X018352Y008437D01*
X018342Y008391D01*
X018329Y008346D01*
X018311Y008303D01*
X018290Y008261D01*
X018266Y008221D01*
X018238Y008184D01*
X018207Y008149D01*
X018173Y008116D01*
X018137Y008087D01*
X018098Y008061D01*
X018057Y008038D01*
X018014Y008019D01*
X017970Y008003D01*
X017925Y007991D01*
X017879Y007983D01*
X017832Y007979D01*
X017786Y007979D01*
X017739Y007983D01*
X017693Y007991D01*
X017648Y008003D01*
X017604Y008019D01*
X017561Y008038D01*
X017520Y008061D01*
X017481Y008087D01*
X017445Y008116D01*
X017411Y008149D01*
X017380Y008184D01*
X017352Y008221D01*
X017328Y008261D01*
X017307Y008303D01*
X017289Y008346D01*
X017276Y008391D01*
X017266Y008437D01*
X017260Y008483D01*
X017258Y008530D01*
X017258Y019554D02*
X017260Y019601D01*
X017266Y019647D01*
X017276Y019693D01*
X017289Y019738D01*
X017307Y019781D01*
X017328Y019823D01*
X017352Y019863D01*
X017380Y019900D01*
X017411Y019935D01*
X017445Y019968D01*
X017481Y019997D01*
X017520Y020023D01*
X017561Y020046D01*
X017604Y020065D01*
X017648Y020081D01*
X017693Y020093D01*
X017739Y020101D01*
X017786Y020105D01*
X017832Y020105D01*
X017879Y020101D01*
X017925Y020093D01*
X017970Y020081D01*
X018014Y020065D01*
X018057Y020046D01*
X018098Y020023D01*
X018137Y019997D01*
X018173Y019968D01*
X018207Y019935D01*
X018238Y019900D01*
X018266Y019863D01*
X018290Y019823D01*
X018311Y019781D01*
X018329Y019738D01*
X018342Y019693D01*
X018352Y019647D01*
X018358Y019601D01*
X018360Y019554D01*
X018358Y019507D01*
X018352Y019461D01*
X018342Y019415D01*
X018329Y019370D01*
X018311Y019327D01*
X018290Y019285D01*
X018266Y019245D01*
X018238Y019208D01*
X018207Y019173D01*
X018173Y019140D01*
X018137Y019111D01*
X018098Y019085D01*
X018057Y019062D01*
X018014Y019043D01*
X017970Y019027D01*
X017925Y019015D01*
X017879Y019007D01*
X017832Y019003D01*
X017786Y019003D01*
X017739Y019007D01*
X017693Y019015D01*
X017648Y019027D01*
X017604Y019043D01*
X017561Y019062D01*
X017520Y019085D01*
X017481Y019111D01*
X017445Y019140D01*
X017411Y019173D01*
X017380Y019208D01*
X017352Y019245D01*
X017328Y019285D01*
X017307Y019327D01*
X017289Y019370D01*
X017276Y019415D01*
X017266Y019461D01*
X017260Y019507D01*
X017258Y019554D01*
M02*
