G75*
G70*
%OFA0B0*%
%FSLAX24Y24*%
%IPPOS*%
%LPD*%
%AMOC8*
5,1,8,0,0,1.08239X$1,22.5*
%
%ADD10C,0.0110*%
%ADD11C,0.0060*%
%ADD12C,0.0030*%
%ADD13C,0.0080*%
%ADD14C,0.0120*%
%ADD15C,0.0050*%
%ADD16C,0.0500*%
%ADD17C,0.0000*%
%ADD18C,0.0100*%
%ADD19R,0.0112X0.0200*%
%ADD20C,0.0020*%
%ADD21R,0.1575X0.0148*%
D10*
X005825Y006417D02*
X005666Y006577D01*
X005666Y006683D01*
X005772Y006683D01*
X005931Y006524D01*
X005985Y006577D02*
X005825Y006417D01*
X005978Y006265D02*
X006190Y006477D01*
X006349Y006318D01*
X006349Y006212D01*
X006190Y006053D01*
X006342Y005901D02*
X006501Y005741D01*
X006608Y005741D01*
X006820Y005954D01*
X006820Y006060D01*
X006661Y006219D01*
X006342Y005901D01*
X006707Y005536D02*
X006813Y005430D01*
X006760Y005483D02*
X006972Y005695D01*
X006919Y005748D01*
X007078Y005801D02*
X007131Y005854D01*
X007109Y005452D02*
X007215Y005452D01*
X007374Y005293D01*
X007215Y005240D02*
X007109Y005346D01*
X007109Y005452D01*
X006950Y005293D02*
X007109Y005134D01*
X007215Y005134D01*
X007215Y005240D01*
X007527Y005141D02*
X007208Y004822D01*
X007314Y004928D02*
X007474Y004769D01*
X007580Y004769D01*
X007686Y004875D01*
X007686Y004981D01*
X007527Y005141D01*
X007838Y004723D02*
X008050Y004511D01*
X008097Y004252D02*
X008309Y004464D01*
X008415Y004464D01*
X008521Y004358D01*
X008521Y004252D01*
X008097Y004252D01*
X008097Y004146D01*
X008203Y004040D01*
X008309Y004040D01*
X008521Y004252D01*
X008567Y003994D02*
X008780Y003781D01*
X008985Y003682D02*
X009197Y003682D01*
X008879Y003364D01*
X008773Y003470D02*
X008985Y003258D01*
X005985Y006577D02*
X005985Y006683D01*
X005878Y006789D01*
X005673Y006994D02*
X005514Y007154D01*
X005408Y007154D01*
X005302Y007047D01*
X005302Y006941D01*
X005461Y006782D01*
X005415Y007465D02*
X004884Y007359D01*
X004785Y007564D02*
X004891Y007670D01*
X004891Y007777D01*
X004785Y007883D01*
X004679Y007883D01*
X004572Y007777D01*
X004572Y007671D01*
X004679Y007564D01*
X004785Y007564D01*
X004382Y007860D02*
X004276Y007967D01*
X004329Y007914D02*
X004542Y008126D01*
X004489Y008179D01*
X004648Y008232D02*
X004701Y008285D01*
X004200Y008149D02*
X004147Y008096D01*
X004094Y008149D01*
X004147Y008202D01*
X004200Y008149D01*
X004162Y008506D02*
X004109Y008559D01*
X003896Y008559D01*
X003790Y008453D02*
X004003Y008665D01*
X003797Y008764D02*
X003797Y008871D01*
X003638Y009030D01*
X003744Y009136D02*
X003426Y008817D01*
X003585Y008658D01*
X003691Y008658D01*
X003797Y008764D01*
X003501Y009167D02*
X003236Y008901D01*
X003130Y008901D01*
X003076Y008954D01*
X002818Y009425D02*
X003349Y009531D01*
X003607Y009273D02*
X003660Y009326D01*
X002984Y009896D02*
X002454Y009790D01*
X002324Y009919D02*
X002271Y009972D01*
X002324Y010025D01*
X002377Y009972D01*
X002324Y009919D01*
X002483Y010078D02*
X002430Y010131D01*
X002484Y010184D01*
X002537Y010131D01*
X002483Y010078D01*
X002278Y010284D02*
X002172Y010177D01*
X002066Y010177D01*
X001907Y010337D01*
X001800Y010230D02*
X002119Y010549D01*
X002278Y010390D01*
X002278Y010284D01*
X001982Y010686D02*
X001876Y010792D01*
X001982Y010792D02*
X001770Y010580D01*
X001770Y010474D01*
X001527Y010717D02*
X001527Y010823D01*
X001739Y011035D01*
X001633Y011035D02*
X001739Y010929D01*
X001428Y011134D02*
X001268Y010975D01*
X001428Y011134D02*
X001428Y011240D01*
X001321Y011347D01*
X001215Y011347D01*
X001374Y011506D02*
X001056Y011187D01*
X017667Y020735D02*
X018513Y020735D01*
X018090Y021100D02*
X018090Y021946D01*
X017667Y021523D02*
X018513Y021523D01*
D11*
X002793Y003900D02*
X003114Y003517D01*
X003466Y003486D01*
X003436Y003134D01*
X003757Y002751D01*
X004109Y002720D01*
X004492Y003042D01*
X004523Y003394D01*
X004202Y003777D01*
X003849Y003808D01*
X003466Y003486D01*
X003849Y003808D02*
X003880Y004160D01*
X003559Y004543D01*
X003207Y004574D01*
X002824Y004252D01*
X002793Y003900D01*
X002824Y004252D02*
X002471Y004283D01*
X002150Y004666D01*
X002181Y005018D01*
X001829Y005049D01*
X001507Y005432D01*
X001538Y005784D01*
X001186Y005815D01*
X000864Y006198D01*
X000895Y006550D01*
X001278Y006872D01*
X001630Y006841D01*
X001952Y006458D01*
X001921Y006106D01*
X002273Y006075D01*
X002595Y005692D01*
X002564Y005340D01*
X002181Y005018D01*
X002564Y005340D02*
X002916Y005309D01*
X003237Y004926D01*
X003207Y004574D01*
X001921Y006106D02*
X001538Y005784D01*
X014138Y018922D02*
X013077Y019982D01*
X014845Y021750D01*
X015906Y020690D01*
X014138Y018922D01*
X014138Y019205D02*
X013360Y019982D01*
X014845Y021467D01*
X015623Y020690D01*
X014138Y019205D01*
X018784Y017271D02*
X019084Y017271D01*
X018934Y017121D02*
X018934Y017421D01*
X017784Y018471D02*
X017786Y018551D01*
X017792Y018630D01*
X017802Y018709D01*
X017816Y018788D01*
X017833Y018866D01*
X017855Y018943D01*
X017880Y019018D01*
X017910Y019092D01*
X017942Y019165D01*
X017979Y019236D01*
X018019Y019305D01*
X018062Y019372D01*
X018109Y019437D01*
X018158Y019499D01*
X018211Y019559D01*
X018267Y019616D01*
X018325Y019671D01*
X018386Y019722D01*
X018450Y019770D01*
X018516Y019815D01*
X018584Y019857D01*
X018654Y019895D01*
X018726Y019929D01*
X018799Y019960D01*
X018874Y019988D01*
X018951Y020011D01*
X019028Y020031D01*
X019106Y020047D01*
X019185Y020059D01*
X019264Y020067D01*
X019344Y020071D01*
X019424Y020071D01*
X019504Y020067D01*
X019583Y020059D01*
X019662Y020047D01*
X019740Y020031D01*
X019817Y020011D01*
X019894Y019988D01*
X019969Y019960D01*
X020042Y019929D01*
X020114Y019895D01*
X020184Y019857D01*
X020252Y019815D01*
X020318Y019770D01*
X020382Y019722D01*
X020443Y019671D01*
X020501Y019616D01*
X020557Y019559D01*
X020610Y019499D01*
X020659Y019437D01*
X020706Y019372D01*
X020749Y019305D01*
X020789Y019236D01*
X020826Y019165D01*
X020858Y019092D01*
X020888Y019018D01*
X020913Y018943D01*
X020935Y018866D01*
X020952Y018788D01*
X020966Y018709D01*
X020976Y018630D01*
X020982Y018551D01*
X020984Y018471D01*
X020982Y018391D01*
X020976Y018312D01*
X020966Y018233D01*
X020952Y018154D01*
X020935Y018076D01*
X020913Y017999D01*
X020888Y017924D01*
X020858Y017850D01*
X020826Y017777D01*
X020789Y017706D01*
X020749Y017637D01*
X020706Y017570D01*
X020659Y017505D01*
X020610Y017443D01*
X020557Y017383D01*
X020501Y017326D01*
X020443Y017271D01*
X020382Y017220D01*
X020318Y017172D01*
X020252Y017127D01*
X020184Y017085D01*
X020114Y017047D01*
X020042Y017013D01*
X019969Y016982D01*
X019894Y016954D01*
X019817Y016931D01*
X019740Y016911D01*
X019662Y016895D01*
X019583Y016883D01*
X019504Y016875D01*
X019424Y016871D01*
X019344Y016871D01*
X019264Y016875D01*
X019185Y016883D01*
X019106Y016895D01*
X019028Y016911D01*
X018951Y016931D01*
X018874Y016954D01*
X018799Y016982D01*
X018726Y017013D01*
X018654Y017047D01*
X018584Y017085D01*
X018516Y017127D01*
X018450Y017172D01*
X018386Y017220D01*
X018325Y017271D01*
X018267Y017326D01*
X018211Y017383D01*
X018158Y017443D01*
X018109Y017505D01*
X018062Y017570D01*
X018019Y017637D01*
X017979Y017706D01*
X017942Y017777D01*
X017910Y017850D01*
X017880Y017924D01*
X017855Y017999D01*
X017833Y018076D01*
X017816Y018154D01*
X017802Y018233D01*
X017792Y018312D01*
X017786Y018391D01*
X017784Y018471D01*
X019049Y020022D02*
X019049Y022038D01*
X018989Y010900D02*
X018189Y010900D01*
X018089Y010800D01*
X018089Y010000D01*
X018189Y009900D01*
X018989Y009900D01*
X019089Y010000D01*
X019189Y009900D01*
X019989Y009900D01*
X020089Y010000D01*
X020089Y010800D01*
X019989Y010900D01*
X019189Y010900D01*
X019089Y010800D01*
X018989Y010900D01*
X018334Y006883D02*
X018334Y004868D01*
X019315Y004918D02*
X019315Y005646D01*
X019315Y005282D02*
X019801Y005282D01*
X019801Y005646D02*
X019801Y004918D01*
X019998Y006099D02*
X019512Y006099D01*
X019512Y006827D01*
X016553Y006099D02*
X016067Y006099D01*
X016067Y006827D01*
X015969Y005646D02*
X015969Y004918D01*
X015969Y005282D02*
X016454Y005282D01*
X016454Y005646D02*
X016454Y004918D01*
X007813Y021004D02*
X007663Y021004D01*
X007613Y021054D01*
X006942Y021054D01*
X006892Y021004D01*
X006742Y021004D01*
X006725Y021006D01*
X006708Y021010D01*
X006692Y021017D01*
X006678Y021027D01*
X006665Y021040D01*
X006655Y021054D01*
X006648Y021070D01*
X006644Y021087D01*
X006642Y021104D01*
X006642Y021743D01*
X006644Y021760D01*
X006648Y021777D01*
X006655Y021793D01*
X006665Y021807D01*
X006678Y021820D01*
X006692Y021830D01*
X006708Y021837D01*
X006725Y021841D01*
X006742Y021843D01*
X006892Y021843D01*
X006942Y021793D01*
X007613Y021793D01*
X007663Y021843D01*
X007813Y021843D01*
X007830Y021841D01*
X007847Y021837D01*
X007863Y021830D01*
X007877Y021820D01*
X007890Y021807D01*
X007900Y021793D01*
X007907Y021777D01*
X007911Y021760D01*
X007913Y021743D01*
X007913Y021104D01*
X007911Y021087D01*
X007907Y021070D01*
X007900Y021054D01*
X007890Y021040D01*
X007877Y021027D01*
X007863Y021017D01*
X007847Y021010D01*
X007830Y021006D01*
X007813Y021004D01*
D12*
X017471Y015159D02*
X017471Y015090D01*
X017539Y015022D01*
X017607Y015022D01*
X017642Y015056D01*
X017642Y015124D01*
X017573Y015193D01*
X017573Y015261D01*
X017607Y015295D01*
X017676Y015295D01*
X017744Y015227D01*
X017744Y015159D01*
X017816Y015087D02*
X017679Y014950D01*
X017679Y014882D01*
X017747Y014813D01*
X017816Y014813D01*
X017853Y014708D02*
X017990Y014571D01*
X017853Y014708D02*
X018058Y014913D01*
X017953Y014950D02*
X017953Y015019D01*
X017884Y015087D01*
X017816Y015087D01*
X018924Y016097D02*
X019027Y015994D01*
X019095Y015994D01*
X019232Y016131D01*
X019232Y016200D01*
X019129Y016302D01*
X018924Y016097D01*
X018887Y016203D02*
X018819Y016203D01*
X018750Y016271D01*
X018750Y016340D01*
X018853Y016374D02*
X018921Y016305D01*
X018921Y016237D01*
X018887Y016203D01*
X018853Y016374D02*
X018853Y016442D01*
X018887Y016476D01*
X018955Y016476D01*
X019024Y016408D01*
X019024Y016340D01*
X019269Y016026D02*
X019133Y015889D01*
X019235Y015991D02*
X019372Y015855D01*
X019406Y015889D02*
X019269Y015752D01*
X019406Y015889D02*
X019406Y016026D01*
X019269Y016026D01*
X011166Y008798D02*
X010892Y008798D01*
X010752Y008795D02*
X010616Y008658D01*
X010684Y008726D02*
X010889Y008521D01*
X010772Y008404D02*
X010499Y008404D01*
X010461Y008298D02*
X010461Y008230D01*
X010359Y008127D01*
X010427Y008059D02*
X010222Y008264D01*
X010324Y008367D01*
X010393Y008367D01*
X010461Y008298D01*
X010427Y008196D02*
X010564Y008196D01*
X010635Y008267D02*
X010635Y008541D01*
X011029Y008661D02*
X011029Y008935D01*
X005370Y004270D02*
X005370Y004183D01*
X005283Y004096D01*
X005196Y004096D01*
X005021Y004270D01*
X005021Y004358D01*
X005108Y004445D01*
X005196Y004445D01*
X004935Y004185D02*
X004848Y004185D01*
X004761Y004097D01*
X004761Y004010D01*
X004935Y003835D01*
X005022Y003835D01*
X005110Y003923D01*
X005110Y004010D01*
X005022Y004097D01*
X004935Y004010D01*
X004762Y003837D02*
X004762Y003750D01*
X004631Y003619D01*
X004718Y003531D02*
X004457Y003793D01*
X004587Y003924D01*
X004675Y003924D01*
X004762Y003837D01*
X004128Y004516D02*
X003866Y004778D01*
X003997Y004908D01*
X004084Y004908D01*
X004171Y004821D01*
X004171Y004734D01*
X004041Y004603D01*
X004345Y004820D02*
X004170Y004994D01*
X004170Y005082D01*
X004257Y005169D01*
X004345Y005169D01*
X004432Y005082D02*
X004345Y004994D01*
X004432Y005082D02*
X004519Y004994D01*
X004519Y004907D01*
X004432Y004820D01*
X004345Y004820D01*
X004649Y005036D02*
X004387Y005298D01*
X004518Y005429D01*
X004605Y005429D01*
X004780Y005255D01*
X004780Y005167D01*
X004649Y005036D01*
X004003Y005769D02*
X004134Y005900D01*
X004003Y005769D02*
X003916Y005769D01*
X003829Y005856D01*
X003829Y005944D01*
X003960Y006075D01*
X003699Y005814D02*
X003568Y005683D01*
X003568Y005596D01*
X003656Y005509D01*
X003743Y005509D01*
X003874Y005640D01*
X003526Y005466D02*
X003352Y005641D01*
X003526Y005466D02*
X003526Y005292D01*
X003352Y005292D01*
X003177Y005466D01*
X002936Y005981D02*
X002936Y006155D01*
X002761Y006330D01*
X002978Y006372D02*
X003109Y006503D01*
X003021Y006590D02*
X003283Y006329D01*
X003152Y006198D01*
X003065Y006198D01*
X002978Y006285D01*
X002978Y006372D01*
X003238Y006545D02*
X003238Y006633D01*
X003369Y006764D01*
X003282Y006851D02*
X003544Y006589D01*
X003413Y006458D01*
X003325Y006458D01*
X003238Y006545D01*
X002767Y006918D02*
X002506Y007179D01*
X002636Y007310D01*
X002724Y007310D01*
X002811Y007223D01*
X002811Y007136D01*
X002680Y007005D01*
X002551Y006963D02*
X002551Y006875D01*
X002420Y006745D01*
X002507Y006657D02*
X002245Y006919D01*
X002376Y007050D01*
X002463Y007050D01*
X002551Y006963D01*
X002247Y006746D02*
X002247Y006571D01*
X002072Y006571D01*
X001897Y006746D01*
X002072Y006921D02*
X002247Y006746D01*
X002586Y006155D02*
X002761Y005981D01*
X002936Y005981D01*
D13*
X010233Y007498D02*
X011068Y006663D01*
X012196Y007790D01*
X011361Y008625D01*
X010233Y007498D01*
X018144Y011449D02*
X018358Y011449D01*
X018251Y011449D02*
X018251Y011129D01*
X018513Y011182D02*
X018513Y011289D01*
X018566Y011342D01*
X018673Y011342D01*
X018726Y011289D01*
X018726Y011236D01*
X018513Y011236D01*
X018513Y011182D02*
X018566Y011129D01*
X018673Y011129D01*
X018881Y011129D02*
X018881Y011342D01*
X018881Y011236D02*
X018988Y011342D01*
X019041Y011342D01*
X019188Y011342D02*
X019241Y011342D01*
X019294Y011289D01*
X019348Y011342D01*
X019401Y011289D01*
X019401Y011129D01*
X019294Y011129D02*
X019294Y011289D01*
X019188Y011342D02*
X019188Y011129D01*
X019291Y011621D02*
X019291Y011941D01*
X019078Y011941D02*
X019078Y011621D01*
X018923Y011621D02*
X018923Y011835D01*
X018816Y011941D01*
X018709Y011835D01*
X018709Y011621D01*
X018709Y011781D02*
X018923Y011781D01*
X019078Y011941D02*
X019291Y011621D01*
X018555Y011674D02*
X018501Y011621D01*
X018394Y011621D01*
X018341Y011674D01*
X018341Y011888D01*
X018394Y011941D01*
X018501Y011941D01*
X018555Y011888D01*
D14*
X016796Y008530D02*
X016798Y008593D01*
X016804Y008656D01*
X016814Y008718D01*
X016827Y008779D01*
X016845Y008840D01*
X016866Y008899D01*
X016891Y008957D01*
X016919Y009014D01*
X016951Y009068D01*
X016986Y009120D01*
X017024Y009170D01*
X017065Y009218D01*
X017110Y009263D01*
X017157Y009305D01*
X017206Y009344D01*
X017258Y009380D01*
X017312Y009412D01*
X017367Y009442D01*
X017425Y009467D01*
X017484Y009489D01*
X017544Y009508D01*
X017606Y009522D01*
X017668Y009533D01*
X017730Y009540D01*
X017793Y009543D01*
X017856Y009542D01*
X017919Y009537D01*
X017981Y009528D01*
X018043Y009516D01*
X018104Y009499D01*
X018164Y009479D01*
X018222Y009455D01*
X018279Y009428D01*
X018334Y009397D01*
X018386Y009362D01*
X018437Y009325D01*
X018485Y009284D01*
X018531Y009241D01*
X018574Y009194D01*
X018613Y009146D01*
X018650Y009094D01*
X018684Y009041D01*
X018714Y008986D01*
X018740Y008929D01*
X018763Y008870D01*
X018783Y008810D01*
X018798Y008749D01*
X018810Y008687D01*
X018818Y008624D01*
X018822Y008562D01*
X018822Y008498D01*
X018818Y008436D01*
X018810Y008373D01*
X018798Y008311D01*
X018783Y008250D01*
X018763Y008190D01*
X018740Y008131D01*
X018714Y008074D01*
X018684Y008019D01*
X018650Y007966D01*
X018613Y007914D01*
X018574Y007866D01*
X018531Y007819D01*
X018485Y007776D01*
X018437Y007735D01*
X018386Y007698D01*
X018334Y007663D01*
X018279Y007632D01*
X018222Y007605D01*
X018164Y007581D01*
X018104Y007561D01*
X018043Y007544D01*
X017981Y007532D01*
X017919Y007523D01*
X017856Y007518D01*
X017793Y007517D01*
X017730Y007520D01*
X017668Y007527D01*
X017606Y007538D01*
X017544Y007552D01*
X017484Y007571D01*
X017425Y007593D01*
X017367Y007618D01*
X017312Y007648D01*
X017258Y007680D01*
X017206Y007716D01*
X017157Y007755D01*
X017110Y007797D01*
X017065Y007842D01*
X017024Y007890D01*
X016986Y007940D01*
X016951Y007992D01*
X016919Y008046D01*
X016891Y008103D01*
X016866Y008161D01*
X016845Y008220D01*
X016827Y008281D01*
X016814Y008342D01*
X016804Y008404D01*
X016798Y008467D01*
X016796Y008530D01*
X016781Y019554D02*
X016783Y019618D01*
X016789Y019682D01*
X016799Y019745D01*
X016813Y019807D01*
X016830Y019869D01*
X016852Y019929D01*
X016877Y019988D01*
X016906Y020045D01*
X016938Y020100D01*
X016974Y020153D01*
X017012Y020204D01*
X017054Y020252D01*
X017099Y020298D01*
X017147Y020340D01*
X017197Y020380D01*
X017250Y020416D01*
X017304Y020450D01*
X017361Y020479D01*
X017419Y020505D01*
X017479Y020528D01*
X017540Y020546D01*
X017603Y020561D01*
X017666Y020572D01*
X017729Y020579D01*
X017793Y020582D01*
X017857Y020581D01*
X017921Y020576D01*
X017984Y020567D01*
X018047Y020554D01*
X018108Y020537D01*
X018169Y020517D01*
X018228Y020493D01*
X018286Y020465D01*
X018341Y020433D01*
X018395Y020399D01*
X018446Y020361D01*
X018495Y020319D01*
X018542Y020275D01*
X018585Y020228D01*
X018625Y020179D01*
X018663Y020127D01*
X018697Y020073D01*
X018727Y020016D01*
X018754Y019958D01*
X018777Y019899D01*
X018797Y019838D01*
X018813Y019776D01*
X018825Y019713D01*
X018833Y019650D01*
X018837Y019586D01*
X018837Y019522D01*
X018833Y019458D01*
X018825Y019395D01*
X018813Y019332D01*
X018797Y019270D01*
X018777Y019209D01*
X018754Y019150D01*
X018727Y019092D01*
X018697Y019035D01*
X018663Y018981D01*
X018625Y018929D01*
X018585Y018880D01*
X018542Y018833D01*
X018495Y018789D01*
X018446Y018747D01*
X018395Y018709D01*
X018341Y018675D01*
X018286Y018643D01*
X018228Y018615D01*
X018169Y018591D01*
X018108Y018571D01*
X018047Y018554D01*
X017984Y018541D01*
X017921Y018532D01*
X017857Y018527D01*
X017793Y018526D01*
X017729Y018529D01*
X017666Y018536D01*
X017603Y018547D01*
X017540Y018562D01*
X017479Y018580D01*
X017419Y018603D01*
X017361Y018629D01*
X017304Y018658D01*
X017250Y018692D01*
X017197Y018728D01*
X017147Y018768D01*
X017099Y018810D01*
X017054Y018856D01*
X017012Y018904D01*
X016974Y018955D01*
X016938Y019008D01*
X016906Y019063D01*
X016877Y019120D01*
X016852Y019179D01*
X016830Y019239D01*
X016813Y019301D01*
X016799Y019363D01*
X016789Y019426D01*
X016783Y019490D01*
X016781Y019554D01*
X005725Y019554D02*
X005727Y019619D01*
X005733Y019683D01*
X005743Y019747D01*
X005756Y019810D01*
X005774Y019872D01*
X005795Y019933D01*
X005820Y019993D01*
X005849Y020051D01*
X005881Y020107D01*
X005916Y020161D01*
X005955Y020213D01*
X005997Y020262D01*
X006041Y020309D01*
X006089Y020353D01*
X006139Y020394D01*
X006191Y020432D01*
X006246Y020467D01*
X006302Y020498D01*
X006361Y020525D01*
X006421Y020549D01*
X006482Y020570D01*
X006545Y020586D01*
X006608Y020599D01*
X006672Y020608D01*
X006737Y020613D01*
X006801Y020614D01*
X006866Y020611D01*
X006930Y020604D01*
X006994Y020593D01*
X007057Y020579D01*
X007119Y020560D01*
X007179Y020538D01*
X007239Y020512D01*
X007296Y020483D01*
X007352Y020450D01*
X007405Y020413D01*
X007457Y020374D01*
X007505Y020332D01*
X007551Y020286D01*
X007595Y020238D01*
X007635Y020187D01*
X007672Y020134D01*
X007706Y020079D01*
X007736Y020022D01*
X007763Y019963D01*
X007786Y019903D01*
X007805Y019841D01*
X007821Y019779D01*
X007833Y019715D01*
X007841Y019651D01*
X007845Y019586D01*
X007845Y019522D01*
X007841Y019457D01*
X007833Y019393D01*
X007821Y019329D01*
X007805Y019267D01*
X007786Y019205D01*
X007763Y019145D01*
X007736Y019086D01*
X007706Y019029D01*
X007672Y018974D01*
X007635Y018921D01*
X007595Y018870D01*
X007551Y018822D01*
X007505Y018776D01*
X007457Y018734D01*
X007405Y018695D01*
X007352Y018658D01*
X007296Y018625D01*
X007239Y018596D01*
X007179Y018570D01*
X007119Y018548D01*
X007057Y018529D01*
X006994Y018515D01*
X006930Y018504D01*
X006866Y018497D01*
X006801Y018494D01*
X006737Y018495D01*
X006672Y018500D01*
X006608Y018509D01*
X006545Y018522D01*
X006482Y018538D01*
X006421Y018559D01*
X006361Y018583D01*
X006302Y018610D01*
X006246Y018641D01*
X006191Y018676D01*
X006139Y018714D01*
X006089Y018755D01*
X006041Y018799D01*
X005997Y018846D01*
X005955Y018895D01*
X005916Y018947D01*
X005881Y019001D01*
X005849Y019057D01*
X005820Y019115D01*
X005795Y019175D01*
X005774Y019236D01*
X005756Y019298D01*
X005743Y019361D01*
X005733Y019425D01*
X005727Y019489D01*
X005725Y019554D01*
X005816Y008530D02*
X005818Y008592D01*
X005824Y008654D01*
X005834Y008715D01*
X005848Y008776D01*
X005865Y008835D01*
X005887Y008894D01*
X005912Y008950D01*
X005941Y009006D01*
X005973Y009059D01*
X006008Y009110D01*
X006047Y009158D01*
X006089Y009204D01*
X006134Y009247D01*
X006181Y009288D01*
X006231Y009325D01*
X006283Y009359D01*
X006337Y009389D01*
X006393Y009416D01*
X006450Y009439D01*
X006509Y009459D01*
X006569Y009475D01*
X006630Y009487D01*
X006692Y009495D01*
X006754Y009499D01*
X006816Y009499D01*
X006878Y009495D01*
X006940Y009487D01*
X007001Y009475D01*
X007061Y009459D01*
X007120Y009439D01*
X007177Y009416D01*
X007233Y009389D01*
X007287Y009359D01*
X007339Y009325D01*
X007389Y009288D01*
X007436Y009247D01*
X007481Y009204D01*
X007523Y009158D01*
X007562Y009110D01*
X007597Y009059D01*
X007629Y009006D01*
X007658Y008950D01*
X007683Y008894D01*
X007705Y008835D01*
X007722Y008776D01*
X007736Y008715D01*
X007746Y008654D01*
X007752Y008592D01*
X007754Y008530D01*
X007752Y008468D01*
X007746Y008406D01*
X007736Y008345D01*
X007722Y008284D01*
X007705Y008225D01*
X007683Y008166D01*
X007658Y008110D01*
X007629Y008054D01*
X007597Y008001D01*
X007562Y007950D01*
X007523Y007902D01*
X007481Y007856D01*
X007436Y007813D01*
X007389Y007772D01*
X007339Y007735D01*
X007287Y007701D01*
X007233Y007671D01*
X007177Y007644D01*
X007120Y007621D01*
X007061Y007601D01*
X007001Y007585D01*
X006940Y007573D01*
X006878Y007565D01*
X006816Y007561D01*
X006754Y007561D01*
X006692Y007565D01*
X006630Y007573D01*
X006569Y007585D01*
X006509Y007601D01*
X006450Y007621D01*
X006393Y007644D01*
X006337Y007671D01*
X006283Y007701D01*
X006231Y007735D01*
X006181Y007772D01*
X006134Y007813D01*
X006089Y007856D01*
X006047Y007902D01*
X006008Y007950D01*
X005973Y008001D01*
X005941Y008054D01*
X005912Y008110D01*
X005887Y008166D01*
X005865Y008225D01*
X005848Y008284D01*
X005834Y008345D01*
X005824Y008406D01*
X005818Y008468D01*
X005816Y008530D01*
D15*
X005914Y009853D02*
X014399Y018339D01*
X010863Y021874D01*
X002378Y013389D01*
X005914Y009853D01*
X007847Y010719D02*
X016332Y019205D01*
X019867Y015669D01*
X011382Y007184D01*
X007847Y010719D01*
X013424Y008728D02*
X014484Y007668D01*
X020141Y013325D01*
X019081Y014385D01*
X013777Y009082D01*
X014131Y008728D01*
X014131Y009082D02*
X013777Y008728D01*
X013424Y008728D02*
X013777Y009082D01*
X018727Y013678D02*
X019081Y014032D01*
D16*
X017746Y014962D02*
X016685Y016023D01*
X015271Y014609D01*
X016332Y013548D01*
X017746Y014962D01*
X016685Y016023D02*
X015625Y017083D01*
X014211Y015669D01*
X015271Y014609D01*
X014564Y013901D02*
X013150Y012487D01*
X014211Y011427D01*
X015625Y012841D01*
X014564Y013901D01*
X013503Y014962D01*
X012089Y013548D01*
X013150Y012487D01*
X012443Y011780D02*
X011382Y012841D01*
X009968Y011427D01*
X011029Y010366D01*
X012089Y009305D01*
X013503Y010719D01*
X012443Y011780D01*
X011029Y010366D01*
X008035Y013389D02*
X006974Y014449D01*
X005914Y015510D01*
X004499Y014096D01*
X005560Y013035D01*
X006621Y011975D01*
X008035Y013389D01*
X008742Y014096D02*
X007681Y015157D01*
X009096Y016571D01*
X008035Y017631D01*
X006621Y016217D01*
X007681Y015157D01*
X006974Y014449D02*
X005560Y013035D01*
X008742Y014096D02*
X010156Y015510D01*
X009096Y016571D01*
X009803Y017278D02*
X011217Y018692D01*
X010156Y019753D01*
X008742Y018339D01*
X009803Y017278D01*
X010863Y016217D01*
X012278Y017631D01*
X011217Y018692D01*
D17*
X009142Y019046D02*
X008342Y019046D01*
X008742Y018646D02*
X008742Y019446D01*
X007277Y021024D02*
X007277Y021824D01*
X006877Y021424D02*
X007677Y021424D01*
X013811Y016376D02*
X014611Y016376D01*
X014211Y015976D02*
X014211Y016776D01*
X014491Y019936D02*
X014491Y020736D01*
X014091Y020336D02*
X014891Y020336D01*
X018984Y018471D02*
X019784Y018471D01*
X019384Y018071D02*
X019384Y018871D01*
X019482Y020630D02*
X019482Y021430D01*
X019082Y021030D02*
X019882Y021030D01*
X019089Y010800D02*
X019089Y010000D01*
X018689Y010400D02*
X019489Y010400D01*
X017901Y006276D02*
X017901Y005476D01*
X017501Y005876D02*
X018301Y005876D01*
X014708Y008552D02*
X013908Y008552D01*
X014308Y008152D02*
X014308Y008952D01*
X011614Y007644D02*
X010814Y007644D01*
X011214Y007244D02*
X011214Y008044D01*
X003094Y004796D02*
X002294Y004796D01*
X002694Y004396D02*
X002694Y005196D01*
D18*
X017330Y004824D02*
X018472Y004824D01*
X018472Y006927D01*
X017330Y006927D01*
X017330Y004824D01*
X018911Y019979D02*
X020053Y019979D01*
X020053Y022081D01*
X018911Y022081D01*
X018911Y019979D01*
D19*
X007969Y021424D03*
X006586Y021424D03*
D20*
X011354Y008549D02*
X011354Y008410D01*
X011562Y008201D01*
X011667Y008305D01*
X011841Y008131D02*
X011736Y008027D01*
X012015Y007748D01*
X011354Y008410D02*
X010449Y007505D01*
X010310Y007505D01*
X010449Y007505D02*
X010658Y007296D01*
X010553Y007192D01*
X010727Y007018D02*
X010832Y007122D01*
X011110Y006844D01*
D21*
G36*
X012188Y007783D02*
X011076Y006671D01*
X010972Y006775D01*
X012084Y007887D01*
X012188Y007783D01*
G37*
M02*
